# xmcd CD database file
#
# Track frame offsets:
#	150
#	29330
#	50162
#	66855
#	81542
#	102337
#	117290
#	138160
#
# Disc length: 2159 seconds
#
# Revision: 0
# Processed by: cddbd v1.5.2PL0 Copyright (c) Steve Scherf et al.
# Submitted via: CDex 1.51
#
DISCID=71086d08
DTITLE=Soul Bossa Trio - Nature Vision
DYEAR=1998
DGENRE=Jazz
TTITLE0=Rain Flow
TTITLE1=You and I,Together
TTITLE2=RIO
TTITLE3=Message of Love
TTITLE4=Freedom Calling
TTITLE5=Rising
TTITLE6=How Insensitive
TTITLE7=Tell me a bedtime story
EXTD=YEAR: 1998
EXTT0=
EXTT1=
EXTT2=
EXTT3=
EXTT4=
EXTT5=
EXTT6=
EXTT7=
PLAYORDER=
